<svg width="29" height="29" viewBox="0 0 29 29" fill="none" xmlns="http://www.w3.org/2000/svg">
<path d="M8.93743 21.5001C8.84815 21.1541 8.66777 20.8382 8.41505 20.5855C8.16232 20.3328 7.8465 20.1524 7.50043 20.0631L1.36543 18.4811C1.26076 18.4514 1.16864 18.3884 1.10304 18.3016C1.03744 18.2148 1.00195 18.1089 1.00195 18.0001C1.00195 17.8913 1.03744 17.7855 1.10304 17.6987C1.16864 17.6119 1.26076 17.5488 1.36543 17.5191L7.50043 15.9361C7.84638 15.8469 8.16212 15.6667 8.41483 15.4142C8.66754 15.1616 8.84799 14.846 8.93743 14.5001L10.5194 8.36512C10.5488 8.26004 10.6118 8.16747 10.6987 8.10152C10.7857 8.03557 10.8918 7.99988 11.0009 7.99988C11.11 7.99988 11.2162 8.03557 11.3031 8.10152C11.39 8.16747 11.453 8.26004 11.4824 8.36512L13.0634 14.5001C13.1527 14.8462 13.3331 15.162 13.5858 15.4147C13.8385 15.6675 14.1544 15.8478 14.5004 15.9371L20.6354 17.5181C20.7409 17.5472 20.834 17.6101 20.9003 17.6972C20.9666 17.7843 21.0025 17.8907 21.0025 18.0001C21.0025 18.1096 20.9666 18.216 20.9003 18.303C20.834 18.3901 20.7409 18.453 20.6354 18.4821L14.5004 20.0631C14.1544 20.1524 13.8385 20.3328 13.5858 20.5855C13.3331 20.8382 13.1527 21.1541 13.0634 21.5001L11.4814 27.6351C11.452 27.7402 11.389 27.8328 11.3021 27.8987C11.2152 27.9647 11.109 28.0004 10.9999 28.0004C10.8908 28.0004 10.7847 27.9647 10.6977 27.8987C10.6108 27.8328 10.5478 27.7402 10.5184 27.6351L8.93743 21.5001Z" fill="#4B5563"/>
<path d="M21.9689 7.75012C21.9243 7.57709 21.8341 7.41918 21.7077 7.29282C21.5814 7.16646 21.4235 7.07626 21.2504 7.03162L18.1829 6.24062C18.1306 6.22577 18.0845 6.19425 18.0517 6.15085C18.0189 6.10744 18.0012 6.05453 18.0012 6.00012C18.0012 5.94572 18.0189 5.89281 18.0517 5.8494C18.0845 5.806 18.1306 5.77448 18.1829 5.75962L21.2504 4.96812C21.4234 4.92353 21.5813 4.83341 21.7076 4.70714C21.834 4.58088 21.9242 4.42307 21.9689 4.25012L22.7599 1.18262C22.7746 1.13008 22.8061 1.0838 22.8496 1.05082C22.8931 1.01785 22.9461 1 23.0007 1C23.0552 1 23.1083 1.01785 23.1518 1.05082C23.1952 1.0838 23.2267 1.13008 23.2414 1.18262L24.0319 4.25012C24.0766 4.42316 24.1668 4.58107 24.2931 4.70743C24.4195 4.83379 24.5774 4.92399 24.7504 4.96862L27.8179 5.75912C27.8707 5.77367 27.9172 5.80513 27.9503 5.84866C27.9835 5.8922 28.0015 5.94541 28.0015 6.00012C28.0015 6.05484 27.9835 6.10805 27.9503 6.15159C27.9172 6.19512 27.8707 6.22657 27.8179 6.24112L24.7504 7.03162C24.5774 7.07626 24.4195 7.16646 24.2931 7.29282C24.1668 7.41918 24.0766 7.57709 24.0319 7.75012L23.2409 10.8176C23.2262 10.8702 23.1947 10.9165 23.1513 10.9494C23.1078 10.9824 23.0547 11.0002 23.0002 11.0002C22.9456 11.0002 22.8926 10.9824 22.8491 10.9494C22.8056 10.9165 22.7741 10.8702 22.7594 10.8176L21.9689 7.75012Z" fill="#4B5563"/>
<path d="M8.93743 21.5001C8.84815 21.1541 8.66777 20.8382 8.41505 20.5855C8.16232 20.3328 7.8465 20.1524 7.50043 20.0631L1.36543 18.4811C1.26076 18.4514 1.16864 18.3884 1.10304 18.3016C1.03744 18.2148 1.00195 18.1089 1.00195 18.0001C1.00195 17.8913 1.03744 17.7855 1.10304 17.6987C1.16864 17.6119 1.26076 17.5488 1.36543 17.5191L7.50043 15.9361C7.84638 15.8469 8.16212 15.6667 8.41483 15.4142C8.66754 15.1616 8.84799 14.846 8.93743 14.5001L10.5194 8.36512C10.5488 8.26004 10.6118 8.16747 10.6987 8.10152C10.7857 8.03557 10.8918 7.99988 11.0009 7.99988C11.11 7.99988 11.2162 8.03557 11.3031 8.10152C11.39 8.16747 11.453 8.26004 11.4824 8.36512L13.0634 14.5001C13.1527 14.8462 13.3331 15.162 13.5858 15.4147C13.8385 15.6675 14.1544 15.8478 14.5004 15.9371L20.6354 17.5181C20.7409 17.5472 20.834 17.6101 20.9003 17.6972C20.9666 17.7843 21.0025 17.8907 21.0025 18.0001C21.0025 18.1096 20.9666 18.216 20.9003 18.303C20.834 18.3901 20.7409 18.453 20.6354 18.4821L14.5004 20.0631C14.1544 20.1524 13.8385 20.3328 13.5858 20.5855C13.3331 20.8382 13.1527 21.1541 13.0634 21.5001L11.4814 27.6351C11.452 27.7402 11.389 27.8328 11.3021 27.8987C11.2152 27.9647 11.109 28.0004 10.9999 28.0004C10.8908 28.0004 10.7847 27.9647 10.6977 27.8987C10.6108 27.8328 10.5478 27.7402 10.5184 27.6351L8.93743 21.5001Z" stroke="#4B5563" stroke-width="2" stroke-linecap="round" stroke-linejoin="round"/>
<path d="M21.9689 7.75012C21.9243 7.57709 21.8341 7.41918 21.7077 7.29282C21.5814 7.16646 21.4235 7.07626 21.2504 7.03162L18.1829 6.24062C18.1306 6.22577 18.0845 6.19425 18.0517 6.15085C18.0189 6.10744 18.0012 6.05453 18.0012 6.00012C18.0012 5.94572 18.0189 5.89281 18.0517 5.8494C18.0845 5.806 18.1306 5.77448 18.1829 5.75962L21.2504 4.96812C21.4234 4.92353 21.5813 4.83341 21.7076 4.70714C21.834 4.58088 21.9242 4.42307 21.9689 4.25012L22.7599 1.18262C22.7746 1.13008 22.8061 1.0838 22.8496 1.05082C22.8931 1.01785 22.9461 1 23.0007 1C23.0552 1 23.1083 1.01785 23.1518 1.05082C23.1952 1.0838 23.2267 1.13008 23.2414 1.18262L24.0319 4.25012C24.0766 4.42316 24.1668 4.58107 24.2931 4.70743C24.4195 4.83379 24.5774 4.92399 24.7504 4.96862L27.8179 5.75912C27.8707 5.77367 27.9172 5.80513 27.9503 5.84866C27.9835 5.8922 28.0015 5.94541 28.0015 6.00012C28.0015 6.05484 27.9835 6.10805 27.9503 6.15159C27.9172 6.19512 27.8707 6.22657 27.8179 6.24112L24.7504 7.03162C24.5774 7.07626 24.4195 7.16646 24.2931 7.29282C24.1668 7.41918 24.0766 7.57709 24.0319 7.75012L23.2409 10.8176C23.2262 10.8702 23.1947 10.9165 23.1513 10.9494C23.1078 10.9824 23.0547 11.0002 23.0002 11.0002C22.9456 11.0002 22.8926 10.9824 22.8491 10.9494C22.8056 10.9165 22.7741 10.8702 22.7594 10.8176L21.9689 7.75012Z" stroke="#4B5563" stroke-width="2" stroke-linecap="round" stroke-linejoin="round"/>
</svg>
